<?xml version="1.0" encoding="utf-8"?>
<!-- Generator: Adobe Illustrator 24.0.1, SVG Export Plug-In . SVG Version: 6.00 Build 0)  -->
<svg version="1.1" id="Layer_1" xmlns="http://www.w3.org/2000/svg" xmlns:xlink="http://www.w3.org/1999/xlink" x="0px" y="0px"
	 viewBox="0 0 300 300" style="enable-background:new 0 0 300 300;" xml:space="preserve">
<path id="Path_2621" d="M150.03,282.89c-32.21,0-64.42,0.17-96.63-0.09c-11-0.28-21.64-3.99-30.42-10.62
	c-6.92-4.92-12.58-11.41-16.5-18.94c-3.99-7.01-6.21-14.9-6.44-22.97C0.01,176.28-0.06,122.3,0.11,68.33
	C0.44,60.05,2.96,52,7.43,45.02c5.09-8.81,12.52-16.04,21.46-20.9c6.58-3.97,14.06-6.22,21.74-6.55
	c64.77-0.27,129.55-0.62,194.32-0.49c14.39,0.01,28.17,5.81,38.24,16.1c8.1,8,13.68,18.2,16.05,29.33c0.49,2.36,0.71,4.76,0.67,7.17
	c0.04,52.32-0.06,104.64,0.09,156.95c0.1,11.87-3.62,23.45-10.6,33.05c-6.43,9.07-15.5,15.94-25.98,19.67
	c-6.88,2.48-14.15,3.69-21.46,3.57C211.33,282.83,180.7,282.89,150.03,282.89z M150.12,63.79H58.2c-5.54-0.41-10.44,3.54-11.22,9.04
	c-0.81,4.67-0.99,9.43-0.53,14.16c0.46,6.47,6.08,11.34,12.55,10.88c0.07-0.01,0.15-0.01,0.22-0.02
	c60.9-0.13,121.8-0.16,182.71-0.08c5.41,0.27,10.17-3.55,11.07-8.89c0.77-4.68,0.95-9.45,0.53-14.18c-0.35-6.42-5.83-11.34-12.25-11
	c-0.03,0-0.07,0-0.1,0.01C210.83,63.87,180.48,63.79,150.12,63.79z M149.68,166.93c30.84,0,61.68,0,92.52,0
	c5.33,0.29,10-3.51,10.8-8.79c0.75-4.69,0.94-9.45,0.55-14.18c-0.09-6.16-5.16-11.07-11.32-10.98c-0.15,0-0.29,0.01-0.44,0.02
	c-61.19-0.12-122.39-0.14-183.58-0.06c-5.48-0.15-10.25,3.7-11.28,9.08c-0.72,4.69-0.88,9.45-0.49,14.18
	c0.92,7.55,5.74,10.81,12.76,10.79c30.16-0.15,60.32-0.08,90.48-0.08V166.93z M149.99,236.06c30.93,0,61.87,0,92.82,0
	c4.48,0.11,8.46-2.85,9.65-7.17c0.69-4.36,1.1-8.76,1.22-13.17c0.58-6.99-4.63-13.13-11.62-13.7c-0.63-0.05-1.26-0.06-1.89-0.01
	c-60.12,0.12-120.24,0.14-180.36,0.06c-0.58,0-1.17-0.02-1.76,0c-5.38,0.08-9.99,3.86-11.13,9.12c-0.6,4.61-0.77,9.26-0.51,13.9
	c0.21,6.34,5.52,11.31,11.86,11.1c0.22-0.01,0.45-0.02,0.67-0.04c30.35-0.2,60.71-0.09,91.06-0.09L149.99,236.06z"/>
</svg>
