<?xml version="1.0" encoding="utf-8"?>
<!-- Generator: Adobe Illustrator 24.0.1, SVG Export Plug-In . SVG Version: 6.00 Build 0)  -->
<svg version="1.1" id="Layer_1" xmlns="http://www.w3.org/2000/svg" xmlns:xlink="http://www.w3.org/1999/xlink" x="0px" y="0px"
	 viewBox="0 0 300 300" style="enable-background:new 0 0 300 300;" xml:space="preserve">
<style type="text/css">
	.st0{fill:#816AD6;}
</style>
<g>
	<path class="st0" d="M280.08,173.42c-11,0-19.92,8.92-19.92,19.92v57.81c0,4.96-4.03,9-9,9H48.83c-4.96,0-8.99-4.03-8.99-9v-57.81
		c0-11-8.92-19.92-19.92-19.92S0,182.34,0,193.35v57.81c0,26.93,21.91,48.84,48.83,48.84h202.33c26.93,0,48.84-21.91,48.84-48.84
		v-57.81C300,182.34,291.08,173.42,280.08,173.42z"/>
	<path class="st0" d="M135.9,205.16c0.35,0.35,0.72,0.67,1.1,0.99c0.11,0.1,0.22,0.2,0.33,0.3c0.25,0.2,0.51,0.39,0.77,0.58
		c0.26,0.2,0.52,0.41,0.8,0.59c0.2,0.13,0.4,0.24,0.61,0.37c0.35,0.22,0.7,0.44,1.07,0.64c0.15,0.08,0.31,0.14,0.46,0.22
		c0.43,0.22,0.86,0.43,1.31,0.62c0.12,0.05,0.25,0.09,0.37,0.14c0.48,0.19,0.97,0.37,1.46,0.52c0.13,0.04,0.27,0.07,0.41,0.1
		c0.49,0.14,0.98,0.27,1.48,0.37c0.25,0.05,0.5,0.07,0.75,0.11c0.39,0.06,0.78,0.14,1.18,0.18c0.66,0.07,1.32,0.1,1.99,0.1
		c0,0,0,0,0,0s0,0,0,0c0.14,0,0.27-0.02,0.41-0.02c0.52-0.01,1.05-0.03,1.56-0.08c0.63-0.06,1.25-0.16,1.86-0.28
		c0.02,0,0.04-0.01,0.06-0.01c3.96-0.79,7.49-2.74,10.23-5.49l72.22-72.22c7.78-7.77,7.78-20.39,0-28.17s-20.39-7.78-28.17,0
		l-38.26,38.25V19.93c0-11-8.92-19.92-19.92-19.92c-11,0-19.92,8.92-19.92,19.92v123.06l-38.26-38.26c-7.78-7.78-20.39-7.78-28.17,0
		c-7.78,7.77-7.78,20.39,0,28.17L135.9,205.16z"/>
</g>
</svg>
