<svg xmlns="http://www.w3.org/2000/svg" width="6110.667" height="4110.667" viewBox="0 0 4583 3083" preserveAspectRatio="xMidYMid meet" xmlns:v="https://vecta.io/nano"><path d="M2258 1162.4c-48.5 6.2-91.3 23.6-130.5 53-13.5 10.2-38.6 34.6-48.9 47.6-28.7 36.4-48.4 80.1-56 124.5-3.5 20.2-3.8 32.2-4.6 157-.7 122.7-.8 125.2-2.9 134.7-2.7 12.5-7.1 25.8-11.2 34.2-4.4 9-23.4 34.1-30 39.6-19.3 16.3-29.7 22.4-54.3 32.2-6 2.3-31.9 5.8-43.6 5.8-31.6 0-64-12.2-89.8-33.7-4.8-4-9.4-7.3-10.2-7.3s-21.6 20.1-46.2 44.7c-31.9 31.9-44.8 45.4-44.8 47 0 2.7 13.4 15.3 27.3 25.6 34.6 25.9 71.9 41.9 121 51.7 30.6 6.2 74.8 4.3 110-4.6 82.1-20.8 151.2-78.9 183.7-154.7 11.4-26.6 16.6-45.6 20.2-74.2 2.2-17.6 2.2-20.9 2.8-143 .6-121.9.7-125.2 2.7-134.6 6.3-28.8 18.1-51.4 37.6-71.6 11-11.3 19.9-18.5 32.2-25.7 26.6-15.5 61.8-21.9 92-16.8 33.4 5.7 62 22.1 84.1 48.3 16.1 19 25.5 37.9 30.7 61.9 1.9 9 2 13.9 2.7 99 .6 87.1.7 89.8 2.9 99.2 5.9 26.6 17.1 47 36 65.9 17.6 17.6 36 28.2 59.8 34.3 8.2 2.2 24.8 3.9 29.5 3.1l3.9-.7-.1-140.1-.1-140.2 2.6-14.4c3.9-22.1 10.6-39.4 21.1-54.8 23.8-34.6 55.9-55.3 96.4-61.9 12.4-2.1 35.8-1.3 48 1.5 56.5 13 97.2 54.6 110.1 112.6 2.2 9.8 2.3 11.9 2.9 98.5.6 76.7.9 89.5 2.3 96 7.2 32.7 26.1 61.8 52 80.1 9.3 6.6 24.4 14.2 35.7 18 13.5 4.5 36.1 7.4 39.8 5.1 1-.7 1.2-30.3 1-150.8l-.3-149.9-2.8-14.4c-3.7-19.3-6.9-31.6-11.8-45.8-8.1-22.9-22.4-52-30-60.7-2-2.2-4.8-6.7-6.3-9.8-4.8-10.2-37.4-43.7-56.2-57.9-24.2-18.1-48.5-30.9-76.9-40.2-39.2-12.9-47.1-14.2-88-14.2-27.1 0-31.3.2-43 2.3-20.3 3.7-29.1 5.9-41.5 10.7-6.3 2.4-14.6 5.3-18.4 6.5-7.7 2.4-11.9 4.4-28.1 13.3-24.4 13.5-42.3 27.2-62.2 47.5l-12.2 12.6-8.2-8.8c-21.1-22.5-51.3-44.7-79.5-58.3-18.4-8.9-58-21.1-78.9-24.4-11.1-1.7-61.1-2-73.5-.5zm-652 .6c-1.3.8-1.5 17.6-1.7 140.2l.8 152.4c3.1 45 18.1 88.5 43.7 126.9 12.9 19.3 20.9 29.3 35.2 43.6 21.9 22 38.8 34.2 70.2 50.4 27.1 14 43.7 19.5 73.3 24.4 23.9 4 35 5.1 49.4 5.1 32.5 0 62-4.8 91.3-14.9 22.5-7.8 25.9-10.1 27.9-18.7 1.3-5.2 2.6-152.6 1.4-157.1-.3-1.3-.9-2.3-1.4-2.3-.4 0-4.5 4.5-9 9.9-44.5 54.5-119.2 68.6-179.6 34-12.4-7.1-19.4-12.6-30.7-24.1-18.9-19.2-31-41.6-38-70.3-2.1-8.8-2.2-11.2-2.8-99.5-.6-87.1-.7-90.8-2.7-99-7.7-31.5-24.9-57.9-49.7-76.2-9.1-6.8-28.2-16.4-40.1-20.2-13.2-4.3-34-6.8-37.5-4.6zm706.9 596.5c-22.5 6.2-36.7 28.1-33 50.9 4.5 27.5 29.6 43.5 58.1 37 28-6.3 42.5-37.2 30-64.1-5.3-11.5-16.3-20.4-29.4-23.9-6.3-1.7-19.5-1.7-25.7.1zm23.9 20.1c8.2 3.4 13.2 11.1 14 21.4.5 8-.8 13.4-4.9 18.9-7.5 10.5-26 12.4-36.5 3.8-7.3-6.1-10.5-19-7.2-29.8 1.5-5.2 7.3-11.7 12.2-14 5.2-2.4 17.1-2.5 22.4-.3zm175.7-20.3c-10 3.3-16.3 9-20.9 18.6l-3.1 6.6-.3 31.2-.3 31.3h10.5 10.5l.3-29.3c.3-27.1.4-29.4 2.3-32.6 5.5-9.2 22.4-9.7 28.9-.8 2 2.7 2.1 4.5 2.6 32.5l.5 29.7h10.5 10.5l.5-29c.5-26.8.7-29.3 2.5-32.5 2.7-4.6 7.6-7 14.5-7 6.8 0 11.7 2.4 14.5 7.1 1.9 3.2 2 5.5 2.3 32.6l.3 29.3h10.5 10.5l-.3-31.3-.3-31.2-3.1-6.6c-3.8-8.1-9-13.3-16.3-16.8-4.9-2.3-6.9-2.6-16.1-2.6-9.4 0-11.1.3-16.1 2.8-3.1 1.5-7.5 4.7-9.8 7.2l-4.1 4.5-4.1-4.5c-6.4-6.9-13.4-9.9-24.3-10.2-5.6-.2-10.6.2-13.1 1zm154.4.2c-22.5 6.2-36.7 28.1-33 50.9 5.2 31.8 39.4 48.1 69.2 33 8.2-4.1 18.9-16.3 18.9-21.4 0-.6-3.7-1-10-1-9.8 0-10 0-14.5 3.5-5.2 3.9-9.3 5-18.7 4.9-11-.1-20.2-6.6-22.4-15.7l-.6-2.7h35.1 35.1v-8.3c-.1-21.1-13-37.9-33.5-43.3-6.2-1.7-19.5-1.6-25.6.1zm22 19.1c5.9 1.7 12.1 7.2 13.9 12.2l1.1 3.2h-24c-13.2 0-23.9-.4-23.9-.9 0-2.1 6.8-10.7 9.8-12.5 6.6-3.8 14.8-4.5 23.1-2zm73.5-18.6c-11.7 3.8-20.3 14.9-22.5 29-.5 3.6-.8 18-.7 32l.3 25.5h10.5 10.5l.5-29.5c.4-26.3.7-29.9 2.3-32.3 3-4.5 7.5-6.7 14-6.7 7.1 0 12.4 2.5 15.2 7.2 1.9 3.1 2 5.4 2.3 32.5l.3 29.3h10.5 10.4v-26.8c0-16.1.4-28.3 1.1-30.7 2.1-7.7 7.6-11.5 16.6-11.5 6.5 0 11 2.2 14 6.7 1.6 2.4 1.9 6 2.3 32.3l.5 29.5h10.5 10.5l.3-25.5c.3-28.9-.4-35.8-4.8-44.7-6.3-12.8-18.2-19.1-34.4-18.1-10 .7-16.3 3.4-22.7 10l-4.7 4.7-3.1-3.9c-1.9-2.4-5.7-5.1-9.7-7.1-8.7-4.3-20.5-5-30-1.9zm155.7-.4c-20 5.4-33.1 22.7-33.1 44.1 0 13.1 4.9 24.4 14.5 33.1 18.9 17.3 49.9 16.1 66.7-2.6 3.2-3.5 7.8-11 7.8-12.7 0-.3-4.9-.5-10.8-.5-9.9 0-11.1.2-12.8 2.1-6.5 7.3-24.5 8.7-33.6 2.6-3.4-2.4-8.2-8.7-9.3-12.4l-.6-2.3 35.3-.2 35.3-.3.3-4.5c.5-6.8-1.6-16.8-5-23.7-3.4-7-12-15.8-18.6-19.2-9.8-5-25-6.5-36.1-3.5zm24.9 19.9c6 3 12 9.8 12 13.5 0 .7-7.8 1-23.5 1s-23.5-.3-23.5-1c0-4.4 8.8-13.2 14.8-14.9 5.2-1.4 16.1-.7 20.2 1.4zm-765 6.8c0 28.6.7 33.6 5.7 43 3.6 6.5 11.1 13.1 18.1 15.8 4.3 1.7 7.9 2.3 14.7 2.3 8.2.1 9.5-.2 14.4-2.9 2.9-1.6 6.6-4.5 8.2-6.4l2.9-3.6v8.5c-.1 17.5-6 23.9-21.9 24-9 0-15.1-2.5-18.4-7.6l-2.2-3.4h-10.2c-8 0-10.3.3-10.3 1.3 0 3.2 6.4 13.8 10.6 17.7 16.3 15 48.8 14.2 63.4-1.6 2.3-2.5 5.4-7.1 6.8-10.2l2.7-5.7.3-48.8.3-48.8-10.3.3-10.3.3-.5 26.5c-.3 14.6-.9 27.4-1.4 28.5-3.6 8.2-10.5 12.5-20.1 12.5-10.6 0-17.9-5.2-20.4-14.5-.6-2.4-1.1-14-1.1-28.8V1760h-10.5-10.5v26.3zm208.2 2.9c.3 27.1.5 29.7 2.5 34.5 6.3 15.5 18.1 23.8 35.7 25 23.3 1.6 39.9-9.1 45.2-29.2 1-3.6 1.4-12.7 1.4-32.3v-27.3l-10.2.3-10.3.3-.5 27.5c-.4 23.1-.8 28-2.2 30.5-3.8 6.9-10.5 10.5-19.5 10.5-10.4-.1-17.7-5.3-20.2-14.5-.7-2.4-1.1-14.1-1.1-29.3V1760h-10.6-10.5l.3 29.2z"/></svg>