<?xml version="1.0" encoding="utf-8"?>
<!-- Generator: Adobe Illustrator 24.0.1, SVG Export Plug-In . SVG Version: 6.00 Build 0)  -->
<svg version="1.1" id="Layer_1" xmlns="http://www.w3.org/2000/svg" xmlns:xlink="http://www.w3.org/1999/xlink" x="0px" y="0px"
	 viewBox="0 0 300 300" style="enable-background:new 0 0 300 300;" xml:space="preserve">
<path id="Path_54" d="M262.52,225.64c-3.56-8.86-5.38-18.31-5.37-27.85v-69.2c-0.17-46.83-30.78-88.1-75.55-101.85
	c-2.93-17.45-19.46-29.22-36.91-26.29c-13.47,2.26-24.02,12.82-26.29,26.29C73.64,40.48,43.02,81.75,42.85,128.58v69.2
	c0.01,9.54-1.81,19-5.37,27.85l-15.3,38.25c-2.18,5.5,0.5,11.73,6,13.91c1.26,0.5,2.6,0.76,3.95,0.76h81.45
	c11.17,20.11,36.52,27.36,56.63,16.19c6.8-3.78,12.41-9.39,16.19-16.19h81.45c5.92,0,10.71-4.8,10.71-10.72
	c0-1.35-0.26-2.69-0.76-3.95L262.52,225.64z M47.96,257.16l9.43-23.56c4.56-11.39,6.9-23.54,6.89-35.81v-69.2
	c0-47.34,38.38-85.72,85.72-85.72s85.72,38.38,85.72,85.72v69.2c-0.01,12.27,2.33,24.42,6.89,35.81l9.41,23.56H47.96z"/>
</svg>
