<?xml version="1.0" encoding="utf-8"?>
<!-- Generator: Adobe Illustrator 24.0.1, SVG Export Plug-In . SVG Version: 6.00 Build 0)  -->
<svg version="1.1" id="Layer_1" xmlns="http://www.w3.org/2000/svg" xmlns:xlink="http://www.w3.org/1999/xlink" x="0px" y="0px"
	 viewBox="0 0 300 300" style="enable-background:new 0 0 300 300;" xml:space="preserve">
<style type="text/css">
	.st0{fill:#828282;}
</style>
<g>
	<path class="st0" d="M215.77,227.04c-42.47,36.26-106.51,31.22-142.78-11.25c-13.47-15.77-21.7-35.28-23.74-55.77H80l-40-60l-40,60
		h31.7c2.09,24.65,11.85,48.17,28.01,67.1c23.45,27.47,56.81,41.58,90.38,41.58c27.28,0,54.69-9.33,77.01-28.39
		c3.67-3.13,4.1-8.64,0.97-12.31C224.94,224.35,219.43,223.92,215.77,227.04z"/>
	<path class="st0" d="M268.31,140.03c-2.09-24.65-11.85-48.17-28.01-67.1c-20.59-24.12-49.34-38.77-80.96-41.26
		c-31.68-2.48-62.31,7.47-86.43,28.07c-3.67,3.13-4.1,8.64-0.97,12.31c3.13,3.67,8.64,4.1,12.31,0.97
		c20.57-17.57,46.8-26.05,73.72-23.94c26.97,2.13,51.49,14.62,69.06,35.2c13.46,15.77,21.71,35.27,23.74,55.76H220l40,60l40-60
		H268.31z"/>
</g>
</svg>
