<?xml version="1.0" encoding="utf-8"?>
<!-- Generator: Adobe Illustrator 24.0.1, SVG Export Plug-In . SVG Version: 6.00 Build 0)  -->
<svg version="1.1" id="Layer_1" xmlns="http://www.w3.org/2000/svg" xmlns:xlink="http://www.w3.org/1999/xlink" x="0px" y="0px"
	 viewBox="0 0 300 300" style="enable-background:new 0 0 300 300;" xml:space="preserve">
<g id="Group_2593" transform="translate(-2142.136 -433.284)">
	<g id="Group_22" transform="translate(2142.136 433.284)">
		<circle id="Ellipse_7" cx="150" cy="150" r="17.65"/>
		<path id="Path_33" d="M264.43,48.04c-56.31-60.76-151.21-64.37-211.98-8.06c-60.76,56.31-64.37,151.21-8.06,211.98
			c28.5,30.76,68.58,48.18,110.51,48.04c6.38,0.07,12.26-3.47,15.18-9.15c4.6-8.7,1.28-19.48-7.42-24.08c-2.45-1.3-5.17-2-7.95-2.06
			c-17.3-0.27-34.64-2.29-49.91-10.41c-46.32-24.66-69.64-69.64-64.36-117.42c6.66-53.89,49.83-95.93,103.88-101.15
			c35.34-3.16,70.15,10.25,94.24,36.31c14.24,15.67,22.01,36.15,21.75,57.33v34.07c0.2,7.5-4.4,14.29-11.43,16.88
			c-8.92,3.06-18.63-1.7-21.68-10.62c-0.61-1.77-0.92-3.63-0.92-5.5V97.91c0.2-8.33-5.28-15.73-13.3-17.97
			c-7.4-1.87-15.16,1.23-19.23,7.68c-34.44-24.25-82.02-15.98-106.27,18.47c-24.25,34.44-15.98,82.02,18.47,106.27
			c31.49,22.17,74.56,17.38,100.42-11.16c11.91,11.92,28.85,17.36,45.47,14.6c24.23-3.86,43.76-28.93,43.76-53.49v-32.96
			C295.87,99.29,284.73,70.23,264.43,48.04z M161.13,189.49c-21.86,6.1-44.52-6.68-50.62-28.54c-2.01-7.22-2.01-14.86,0-22.08
			c3.77-13.81,14.56-24.6,28.37-28.36c21.86-6.09,44.52,6.7,50.61,28.56c2.01,7.22,2.01,14.85,0,22.07
			C185.73,174.94,174.94,185.73,161.13,189.49L161.13,189.49z"/>
	</g>
</g>
</svg>
