<?xml version="1.0" encoding="utf-8"?>
<!-- Generator: Adobe Illustrator 24.0.1, SVG Export Plug-In . SVG Version: 6.00 Build 0)  -->
<svg version="1.1" id="Layer_1" xmlns="http://www.w3.org/2000/svg" xmlns:xlink="http://www.w3.org/1999/xlink" x="0px" y="0px"
	 viewBox="0 0 300 300" style="enable-background:new 0 0 300 300;" xml:space="preserve">
<style type="text/css">
	.st0{fill:#26C6DA;}
</style>
<g id="iconfinder_icon-eye_211661" transform="translate(-32 -128)">
	<path id="Path_278" class="st0" d="M182,192.28c-54.84,0-97.57,32.68-150,85.72c45.14,45.33,83.04,85.72,150,85.72
		c66.9,0,116.12-51.16,150-84.78C297.31,239.56,248.17,192.28,182,192.28z M182,339.14c-33.77,0.63-61.65-26.22-62.29-59.99
		c-0.63-33.77,26.22-61.65,59.99-62.29c33.77-0.63,61.65,26.22,62.29,59.99c0.01,0.38,0.01,0.77,0.01,1.15
		C242.26,311.43,215.43,338.77,182,339.14z"/>
	<g id="Group_185" transform="translate(69.126 144.152)">
		<path id="Path_279" class="st0" d="M112.87,112.42c0.01-5.08,1.81-9.99,5.09-13.86c-1.68-0.27-3.38-0.4-5.09-0.4
			c-19.71-0.37-35.99,15.31-36.37,35.02c-0.37,19.71,15.31,35.99,35.02,36.37s35.99-15.31,36.37-35.02c0-0.22,0.01-0.45,0.01-0.67
			c0-1.55-0.13-3.08-0.27-4.62c-9.3,7.35-22.79,5.77-30.13-3.53C114.51,121.92,112.88,117.24,112.87,112.42L112.87,112.42z"/>
	</g>
</g>
</svg>
